<svg width="38" height="30" viewBox="0 0 38 30" fill="none" xmlns="http://www.w3.org/2000/svg">
<g clip-path="url(#clip0_5_34636)">
<path d="M0.75 2.86525V9.6182C0.75 11.6749 3.25611 12.7719 4.78763 11.3322L12.0971 4.5792C13.6983 3.1052 12.654 0.5 10.4612 0.5H3.15169C1.82902 0.5 0.75 1.56265 0.75 2.86525Z" fill="#4F9CF9"/>
<path d="M35.3482 0.5H28.0387C25.8807 0.5 24.8017 3.1052 26.4028 4.5792L33.7123 11.3322C35.2438 12.7376 37.7499 11.6749 37.7499 9.6182V2.86525C37.7499 1.56265 36.6709 0.5 35.3482 0.5Z" fill="#4F9CF9"/>
<path d="M20.9033 16.9884L33.7124 28.8489C35.2439 30.2543 37.75 29.1917 37.75 27.1349V20.3134C37.75 19.6621 37.4715 19.0451 36.9842 18.5995L20.9033 3.68814C19.9635 2.83117 18.5365 2.83117 17.5967 3.68814L1.51576 18.5995C1.02846 19.0451 0.75 19.6621 0.75 20.3134V27.1349C0.75 29.1917 3.25611 30.2886 4.78763 28.8489L17.5967 16.9884C18.5365 16.1314 19.9635 16.1314 20.9033 16.9884Z" fill="#4F9CF9"/>
</g>
<defs>
<clipPath id="clip0_5_34636">
<rect width="37" height="29" fill="white" transform="translate(0.75 0.5)"/>
</clipPath>
</defs>
</svg>
